<svg width="480" height="480" viewBox="0 0 480 480" fill="none" xmlns="http://www.w3.org/2000/svg">
<mask id="path-2-outside-1_5_962" maskUnits="userSpaceOnUse" x="16.4375" y="156.812" width="437" height="212" fill="black">
<rect fill="white" x="16.4375" y="156.812" width="437" height="212"/>
<path d="M26.0513 361.813L95.3513 163.992H130.841L61.5413 361.813H26.0513ZM97.2134 361.813L166.513 163.992H202.003L132.703 361.813H97.2134ZM249.529 340.812L201.859 193.812H244.699L284.809 321.072H263.179L305.389 193.812H343.609L383.509 321.072H362.719L404.089 193.812H443.779L396.109 340.812H351.589L317.569 232.662H329.539L294.049 340.812H249.529Z"/>
</mask>
<path d="M26.0513 361.813L19.8578 359.643L16.7988 368.375H26.0513V361.813ZM95.3513 163.992V157.43H90.6967L89.1578 161.823L95.3513 163.992ZM130.841 163.992L137.035 166.162L140.094 157.43H130.841V163.992ZM61.5413 361.813V368.375H66.1958L67.7347 363.982L61.5413 361.813ZM32.2447 363.982L101.545 166.162L89.1578 161.823L19.8578 359.643L32.2447 363.982ZM95.3513 170.555H130.841V157.43H95.3513V170.555ZM124.648 161.823L55.3478 359.643L67.7347 363.982L137.035 166.162L124.648 161.823ZM61.5413 355.25H26.0513V368.375H61.5413V355.25ZM97.2134 361.813L91.0199 359.643L87.9609 368.375H97.2134V361.813ZM166.513 163.992V157.43H161.859L160.32 161.823L166.513 163.992ZM202.003 163.992L208.197 166.162L211.256 157.43H202.003V163.992ZM132.703 361.813V368.375H137.358L138.897 363.982L132.703 361.813ZM103.407 363.982L172.707 166.162L160.32 161.823L91.0199 359.643L103.407 363.982ZM166.513 170.555H202.003V157.43H166.513V170.555ZM195.81 161.823L126.51 359.643L138.897 363.982L208.197 166.162L195.81 161.823ZM132.703 355.25H97.2134V368.375H132.703V355.25ZM249.529 340.812L243.287 342.837L244.758 347.375H249.529V340.812ZM201.859 193.812V187.25H192.832L195.617 195.837L201.859 193.812ZM244.699 193.812L250.958 191.84L249.511 187.25H244.699V193.812ZM284.809 321.072V327.635H293.758L291.068 319.1L284.809 321.072ZM263.179 321.072L256.95 319.007L254.088 327.635H263.179V321.072ZM305.389 193.812V187.25H300.652L299.16 191.746L305.389 193.812ZM343.609 193.812L349.871 191.849L348.429 187.25H343.609V193.812ZM383.509 321.072V327.635H392.444L389.771 319.109L383.509 321.072ZM362.719 321.072L356.478 319.044L353.685 327.635H362.719V321.072ZM404.089 193.812V187.25H399.322L397.848 191.784L404.089 193.812ZM443.779 193.812L450.022 195.837L452.806 187.25H443.779V193.812ZM396.109 340.812V347.375H400.88L402.352 342.837L396.109 340.812ZM351.589 340.812L345.329 342.782L346.774 347.375H351.589V340.812ZM317.569 232.662V226.1H308.625L311.309 234.632L317.569 232.662ZM329.539 232.662L335.774 234.709L338.599 226.1H329.539V232.662ZM294.049 340.812V347.375H298.802L300.284 342.859L294.049 340.812ZM255.772 338.788L208.101 191.788L195.617 195.837L243.287 342.837L255.772 338.788ZM201.859 200.375H244.699V187.25H201.859V200.375ZM238.44 195.785L278.55 323.045L291.068 319.1L250.958 191.84L238.44 195.785ZM284.809 314.51H263.179V327.635H284.809V314.51ZM269.408 323.138L311.618 195.878L299.16 191.746L256.95 319.007L269.408 323.138ZM305.389 200.375H343.609V187.25H305.389V200.375ZM337.347 195.776L377.247 323.036L389.771 319.109L349.871 191.849L337.347 195.776ZM383.509 314.51H362.719V327.635H383.509V314.51ZM368.96 323.101L410.33 195.841L397.848 191.784L356.478 319.044L368.96 323.101ZM404.089 200.375H443.779V187.25H404.089V200.375ZM437.537 191.788L389.867 338.788L402.352 342.837L450.022 195.837L437.537 191.788ZM396.109 334.25H351.589V347.375H396.109V334.25ZM357.849 338.843L323.829 230.693L311.309 234.632L345.329 342.782L357.849 338.843ZM317.569 239.225H329.539V226.1H317.569V239.225ZM323.304 230.616L287.814 338.766L300.284 342.859L335.774 234.709L323.304 230.616ZM294.049 334.25H249.529V347.375H294.049V334.25Z" fill="white" mask="url(#path-2-outside-1_5_962)"/>
</svg>
