<?xml version="1.0" standalone="no"?>
<!DOCTYPE svg PUBLIC "-//W3C//DTD SVG 20010904//EN"
 "http://www.w3.org/TR/2001/REC-SVG-20010904/DTD/svg10.dtd">
<svg version="1.0" xmlns="http://www.w3.org/2000/svg"
 width="700.000000pt" height="700.000000pt" viewBox="0 0 700.000000 700.000000"
 preserveAspectRatio="xMidYMid meet">
<metadata>
Created by potrace 1.14, written by Peter Selinger 2001-2017
</metadata>
<g transform="translate(0.000000,700.000000) scale(0.100000,-0.100000)"
fill="#000000" stroke="none">
<path d="M1320 4690 c-6 -12 -215 -603 -402 -1140 -54 -154 -249 -711 -316
-900 -35 -102 -75 -214 -87 -250 -12 -36 -77 -221 -144 -411 -66 -190 -121
-349 -121 -352 0 -4 161 -7 359 -7 l358 0 47 138 c26 75 51 146 56 157 5 11
31 85 59 165 51 150 61 179 188 540 42 118 90 258 108 310 18 52 61 174 95
270 34 96 68 193 75 215 7 22 110 316 229 654 119 338 213 617 210 620 -3 3
-163 6 -355 6 -304 0 -352 -2 -359 -15z m571 -132 c-10 -29 -80 -226 -154
-438 -74 -212 -170 -484 -212 -605 -42 -121 -104 -296 -137 -390 -33 -93 -64
-181 -68 -195 -5 -14 -36 -104 -70 -200 -34 -96 -97 -276 -140 -400 -43 -124
-104 -297 -135 -385 -31 -88 -59 -169 -62 -180 -12 -41 -15 -41 -275 -41 -219
1 -253 3 -250 16 2 8 52 155 112 325 179 514 379 1085 410 1170 16 44 46 132
68 195 68 196 182 521 212 605 16 44 47 134 70 200 23 66 60 172 82 235 22 63
41 121 44 128 2 9 64 12 263 12 l260 0 -18 -52z"/>
<path d="M2361 4695 c-5 -5 -50 -129 -101 -275 -51 -146 -119 -341 -152 -435
-33 -93 -93 -267 -134 -385 -42 -118 -88 -251 -104 -295 -16 -44 -139 -397
-275 -785 -135 -388 -254 -727 -264 -755 -10 -27 -26 -69 -34 -92 l-15 -43
362 0 361 0 32 93 c18 50 59 169 91 262 33 94 92 262 132 375 151 431 212 606
220 630 4 14 17 50 28 80 12 30 55 154 98 275 42 121 105 303 141 405 36 102
77 221 92 264 33 95 14 133 156 -309 58 -181 139 -431 180 -555 112 -344 185
-568 285 -880 50 -157 96 -297 101 -311 l10 -25 393 0 393 0 177 538 c97 296
179 538 181 538 1 0 17 -46 35 -102 17 -57 40 -128 50 -158 10 -30 39 -122 65
-205 25 -82 52 -168 60 -190 7 -22 34 -107 60 -190 25 -82 52 -168 59 -190
l13 -40 374 -2 c206 -1 384 0 396 3 18 3 28 24 58 117 20 61 63 195 96 297 95
292 158 488 289 890 66 206 127 393 135 415 27 78 195 602 195 609 0 3 -175 6
-390 6 -214 0 -390 -2 -390 -6 0 -3 -29 -94 -64 -202 -36 -108 -117 -359 -181
-557 -64 -198 -118 -367 -121 -375 -7 -21 -19 2 -38 71 -8 30 -49 162 -91 294
-112 354 -119 378 -165 525 -23 74 -50 160 -60 190 l-19 55 -348 3 -348 2
-190 -570 c-104 -313 -192 -566 -196 -562 -4 4 -23 59 -42 122 -32 104 -266
847 -303 963 l-16 47 -355 0 c-334 0 -355 1 -348 18 15 38 143 412 142 413 -1
1 -161 2 -355 3 -228 1 -356 -2 -361 -9z m579 -93 c0 -5 -23 -73 -51 -153 -28
-79 -57 -162 -64 -184 -7 -22 -41 -119 -75 -215 -34 -96 -66 -186 -70 -200 -5
-14 -38 -108 -73 -210 -36 -102 -71 -201 -77 -220 -6 -19 -15 -44 -20 -55 -5
-11 -18 -47 -29 -80 -11 -33 -41 -118 -66 -190 -26 -71 -50 -141 -55 -155 -8
-25 -117 -338 -210 -600 -28 -80 -71 -203 -95 -275 -25 -71 -62 -177 -83 -235
l-37 -105 -258 -1 c-141 0 -257 2 -257 5 0 2 13 41 29 85 17 45 78 218 136
386 59 168 136 388 172 490 36 102 82 235 103 295 21 61 67 193 103 295 282
805 451 1288 458 1308 l9 22 255 0 c140 0 255 -4 255 -8z m607 -431 c22 -1 19
8 173 -481 29 -91 65 -203 80 -250 15 -47 64 -205 110 -352 46 -148 87 -268
90 -268 3 0 106 304 229 675 123 371 228 675 235 676 15 1 505 1 532 0 16 -1
23 -11 31 -43 6 -24 50 -167 97 -318 113 -358 229 -726 273 -870 19 -63 38
-121 42 -127 6 -12 29 52 112 307 15 47 61 189 102 315 41 127 112 344 157
483 63 193 86 252 98 253 94 5 555 2 558 -3 2 -3 0 -17 -5 -30 -6 -13 -49
-144 -97 -293 -47 -148 -99 -308 -114 -355 -16 -47 -71 -218 -124 -380 -153
-475 -181 -561 -268 -828 l-82 -252 -325 2 -325 3 -72 230 c-40 127 -125 397
-189 600 -65 204 -124 393 -133 420 l-15 50 -97 -295 c-54 -162 -150 -456
-215 -653 l-117 -357 -326 2 -326 3 -17 55 c-9 30 -44 138 -77 240 -205 633
-308 949 -367 1130 -188 580 -226 703 -217 709 8 5 482 6 589 2z"/>
</g>
</svg>
