<svg width="478" height="227" viewBox="0 0 478 227" fill="none" xmlns="http://www.w3.org/2000/svg">
<mask id="path-1-outside-1_152_673" maskUnits="userSpaceOnUse" x="-13" y="-9" width="504" height="245" fill="black">
<rect fill="white" x="-13" y="-9" width="504" height="245"/>
<path d="M0.487187 227L79.6872 0.919984H120.247L41.0472 227H0.487187ZM81.8153 227L161.015 0.919984H201.575L122.375 227H81.8153ZM255.89 203L201.41 35H250.37L296.21 180.44H271.49L319.73 35H363.41L409.01 180.44H385.25L432.53 35H477.89L423.41 203H372.53L333.65 79.4H347.33L306.77 203H255.89Z"/>
</mask>
<path d="M0.487187 227L-8.00669 224.024L-12.202 236H0.487187V227ZM79.6872 0.919984V-8.08002H73.3038L71.1933 -2.05558L79.6872 0.919984ZM120.247 0.919984L128.741 3.89555L132.936 -8.08002H120.247V0.919984ZM41.0472 227V236H47.4306L49.5411 229.976L41.0472 227ZM8.98107 229.976L88.1811 3.89555L71.1933 -2.05558L-8.00669 224.024L8.98107 229.976ZM79.6872 9.91998H120.247V-8.08002H79.6872V9.91998ZM111.753 -2.05558L32.5533 224.024L49.5411 229.976L128.741 3.89555L111.753 -2.05558ZM41.0472 218H0.487187V236H41.0472V218ZM81.8153 227L73.3214 224.024L69.1262 236H81.8153V227ZM161.015 0.919984V-8.08002H154.632L152.521 -2.05558L161.015 0.919984ZM201.575 0.919984L210.069 3.89555L214.264 -8.08002H201.575V0.919984ZM122.375 227V236H128.759L130.869 229.976L122.375 227ZM90.3092 229.976L169.509 3.89555L152.521 -2.05558L73.3214 224.024L90.3092 229.976ZM161.015 9.91998H201.575V-8.08002H161.015V9.91998ZM193.081 -2.05558L113.881 224.024L130.869 229.976L210.069 3.89555L193.081 -2.05558ZM122.375 218H81.8153V236H122.375V218ZM255.89 203L247.329 205.776L249.347 212H255.89V203ZM201.41 35V26H189.03L192.849 37.7762L201.41 35ZM250.37 35L258.954 32.2946L256.97 26H250.37V35ZM296.21 180.44V189.44H308.483L304.794 177.735L296.21 180.44ZM271.49 180.44L262.948 177.607L259.023 189.44H271.49V180.44ZM319.73 35V26H313.233L311.188 32.1666L319.73 35ZM363.41 35L371.998 32.3074L370.021 26H363.41V35ZM409.01 180.44V189.44H421.264L417.598 177.747L409.01 180.44ZM385.25 180.44L376.691 177.658L372.861 189.44H385.25V180.44ZM432.53 35V26H425.992L423.971 32.2176L432.53 35ZM477.89 35L486.451 37.7762L490.27 26H477.89V35ZM423.41 203V212H429.953L431.971 205.776L423.41 203ZM372.53 203L363.945 205.701L365.927 212H372.53V203ZM333.65 79.4V70.4H321.384L325.065 82.1006L333.65 79.4ZM347.33 79.4L355.882 82.2062L359.756 70.4H347.33V79.4ZM306.77 203V212H313.289L315.322 205.806L306.77 203ZM264.451 200.224L209.971 32.2237L192.849 37.7762L247.329 205.776L264.451 200.224ZM201.41 44H250.37V26H201.41V44ZM241.787 37.7054L287.627 183.145L304.794 177.735L258.954 32.2946L241.787 37.7054ZM296.21 171.44H271.49V189.44H296.21V171.44ZM280.033 183.273L328.273 37.8333L311.188 32.1666L262.948 177.607L280.033 183.273ZM319.73 44H363.41V26H319.73V44ZM354.823 37.6925L400.423 183.133L417.598 177.747L371.998 32.3074L354.823 37.6925ZM409.01 171.44H385.25V189.44H409.01V171.44ZM393.809 183.222L441.089 37.7824L423.971 32.2176L376.691 177.658L393.809 183.222ZM432.53 44H477.89V26H432.53V44ZM469.329 32.2237L414.849 200.224L431.971 205.776L486.451 37.7762L469.329 32.2237ZM423.41 194H372.53V212H423.41V194ZM381.116 200.299L342.236 76.6994L325.065 82.1006L363.945 205.701L381.116 200.299ZM333.65 88.4H347.33V70.4H333.65V88.4ZM338.779 76.5938L298.219 200.194L315.322 205.806L355.882 82.2062L338.779 76.5938ZM306.77 194H255.89V212H306.77V194Z" fill="white" mask="url(#path-1-outside-1_152_673)"/>
</svg>
